<svg width="24" height="24" viewBox="0 0 24 24" fill="none" xmlns="http://www.w3.org/2000/svg">
<path d="M12 2.5C6.7 2.5 2.5 6.8 2.5 12C2.5 17.3 6.8 21.5 12 21.5C17.3 21.5 21.5 17.2 21.5 12C21.5 6.7 17.3 2.5 12 2.5ZM12 20.5C7.3 20.5 3.5 16.7 3.5 12C3.5 7.3 7.3 3.5 12 3.5C16.7 3.5 20.5 7.3 20.5 12C20.5 16.7 16.7 20.5 12 20.5Z" fill="#67C453"/>
<path d="M16.4 7.59998L10.1 15.5C10 15.6 9.90002 15.6 9.80002 15.6C9.70002 15.6 9.60002 15.5 9.50002 15.4L7.50002 12.6C7.30002 12.4 7.00002 12.3 6.80002 12.5C6.60002 12.7 6.50002 13 6.70002 13.2L8.70002 16C8.90002 16.4 9.30002 16.6 9.80002 16.6C10.2 16.6 10.6 16.4 10.9 16.1L17.2 8.19998C17.4 7.99998 17.3 7.69998 17.1 7.49998C16.9 7.29998 16.6 7.29998 16.4 7.59998Z" fill="#67C453"/>
</svg>
