<svg width="20" height="20" viewBox="0 0 20 20" fill="none" xmlns="http://www.w3.org/2000/svg">
<path d="M10 1.25C5.16667 1.25 1.25 5.16667 1.25 10C1.25 14.8333 5.16667 18.75 10 18.75C14.8333 18.75 18.75 14.8333 18.75 10C18.75 5.16667 14.8333 1.25 10 1.25ZM10 17.9167C5.66667 17.9167 2.08333 14.4167 2.08333 10C2.08333 5.58333 5.66667 2.08333 10 2.08333C14.3333 2.08333 17.9167 5.58333 17.9167 10C17.9167 14.4167 14.3333 17.9167 10 17.9167Z" fill="#333333"/>
<path d="M10.4167 9.8335V7.00016C10.4167 6.75016 10.25 6.5835 10 6.5835C9.75004 6.5835 9.58337 6.75016 9.58337 7.00016V9.91683C9.58337 10.0002 9.58337 10.1668 9.66671 10.2502L13.4167 14.0002C13.5834 14.1668 13.8334 14.1668 14 14.0002C14.1667 13.8335 14.1667 13.5835 14 13.4168L10.4167 9.8335Z" fill="#333333"/>
</svg>
