<svg width="20" height="20" viewBox="0 0 20 20" fill="none" xmlns="http://www.w3.org/2000/svg">
<path d="M10 1.25C5.16667 1.25 1.25 5.16667 1.25 10C1.25 14.8333 5.16667 18.75 10 18.75C14.8333 18.75 18.75 14.8333 18.75 10C18.75 5.16667 14.8333 1.25 10 1.25ZM10 17.9167C5.66667 17.9167 2.08333 14.4167 2.08333 10C2.08333 5.58333 5.66667 2.08333 10 2.08333C14.3333 2.08333 17.9167 5.58333 17.9167 10C17.9167 14.4167 14.3333 17.9167 10 17.9167Z" fill="white"/>
<path d="M10.4166 9.83337V7.00004C10.4166 6.75004 10.2499 6.58337 9.99992 6.58337C9.74992 6.58337 9.58325 6.75004 9.58325 7.00004V9.91671C9.58325 10 9.58325 10.1667 9.66659 10.25L13.4166 14C13.5833 14.1667 13.8333 14.1667 13.9999 14C14.1666 13.8334 14.1666 13.5834 13.9999 13.4167L10.4166 9.83337Z" fill="white"/>
</svg>
