<svg width="24" height="24" viewBox="0 0 24 24" fill="none" xmlns="http://www.w3.org/2000/svg">
<path d="M12 2.5C6.8 2.5 2.5 6.8 2.5 12C2.5 17.2 6.8 21.5 12 21.5C17.2 21.5 21.5 17.2 21.5 12C21.5 6.8 17.2 2.5 12 2.5ZM12 20.5C7.3 20.5 3.5 16.7 3.5 12C3.5 7.3 7.3 3.5 12 3.5C16.7 3.5 20.5 7.3 20.5 12C20.5 16.7 16.7 20.5 12 20.5Z" fill="#FF3344"/>
<path d="M16 7.99998C15.8 7.79998 15.5 7.79998 15.3 7.99998L12 11.3L8.79998 7.99998C8.59998 7.89998 8.19998 7.89998 7.99998 7.99998C7.79998 8.09998 7.89998 8.59998 7.99998 8.79998L11.2 12L7.99998 15.2C7.79998 15.4 7.79998 15.7 7.99998 15.9C8.09998 16 8.19998 16 8.39998 16C8.59998 16 8.69998 16 8.79998 15.9L12 12.7L15.2 15.9C15.3 16 15.4 16 15.6 16C15.8 16 15.9 16 16 15.9C16.2 15.7 16.2 15.4 16 15.2L12.7 12L16 8.79998C16.1 8.59998 16.1 8.19998 16 7.99998Z" fill="#FF3344"/>
</svg>
