<svg width="24" height="24" viewBox="0 0 24 24" fill="none" xmlns="http://www.w3.org/2000/svg">
<path d="M18.9062 19.5H5.09375C4.21542 19.5 3.5 18.7846 3.5 17.9062V6.21875C3.5 5.34042 4.21542 4.625 5.09375 4.625H18.9062C19.7846 4.625 20.5 5.34042 20.5 6.21875V17.9062C20.5 18.7846 19.7846 19.5 18.9062 19.5ZM5.09375 5.6875C4.80333 5.6875 4.5625 5.92833 4.5625 6.21875V17.9062C4.5625 18.1967 4.80333 18.4375 5.09375 18.4375H18.9062C19.1967 18.4375 19.4375 18.1967 19.4375 17.9062V6.21875C19.4375 5.92833 19.1967 5.6875 18.9062 5.6875H5.09375Z" fill="#333333"/>
<path d="M19.9688 8.875H4.03125V9.9375H19.9688V8.875Z" fill="#333333"/>
<path d="M8.28125 7.28125C7.99083 7.28125 7.75 7.04042 7.75 6.75V3.03125C7.75 2.74083 7.99083 2.5 8.28125 2.5C8.57167 2.5 8.8125 2.74083 8.8125 3.03125V6.75C8.8125 7.04042 8.57167 7.28125 8.28125 7.28125Z" fill="#333333"/>
<path d="M15.7188 7.28125C15.4283 7.28125 15.1875 7.04042 15.1875 6.75V3.03125C15.1875 2.74083 15.4283 2.5 15.7188 2.5C16.0092 2.5 16.25 2.74083 16.25 3.03125V6.75C16.25 7.04042 16.0092 7.28125 15.7188 7.28125Z" fill="#333333"/>
<path d="M14.125 16.8437C13.9904 16.8437 13.8558 16.7941 13.7496 16.6879L9.49958 12.4379C9.29417 12.2325 9.29417 11.8924 9.49958 11.687C9.705 11.4816 10.045 11.4816 10.2504 11.687L14.5004 15.937C14.7058 16.1424 14.7058 16.4825 14.5004 16.6879C14.3942 16.7941 14.2596 16.8437 14.125 16.8437Z" fill="#333333"/>
<path d="M9.875 16.8437C9.74041 16.8437 9.60583 16.7941 9.49958 16.6879C9.29417 16.4825 9.29417 16.1424 9.49958 15.937L13.7496 11.687C13.955 11.4816 14.295 11.4816 14.5004 11.687C14.7058 11.8924 14.7058 12.2325 14.5004 12.4379L10.2504 16.6879C10.1442 16.7941 10.0096 16.8437 9.875 16.8437Z" fill="#333333"/>
</svg>
