<svg width="24" height="24" viewBox="0 0 24 24" fill="none" xmlns="http://www.w3.org/2000/svg">
<path d="M8.40964 9.35463C7.17074 9.35463 6.14522 8.38169 6.12457 7.1739C6.12457 5.97953 7.07438 5.01998 8.28575 4.97301C8.88455 4.94617 9.46271 5.15417 9.90321 5.55006C10.3437 5.94595 10.6052 6.48947 10.6259 7.07323C10.6534 7.657 10.4401 8.22062 10.034 8.65006C9.6279 9.07949 9.07038 9.3345 8.47158 9.35463C8.44405 9.35463 8.4234 9.35463 8.40964 9.35463ZM8.37523 5.97279C8.36147 5.97279 8.34081 5.97279 8.32705 5.97279C7.67318 5.99963 7.15699 6.52302 7.15699 7.16046C7.17075 7.82475 7.74201 8.36827 8.43028 8.34814C8.75377 8.33472 9.04973 8.20048 9.26998 7.96563C9.49023 7.73078 9.60724 7.42882 9.59347 7.11345C9.57971 6.79808 9.44207 6.50286 9.20117 6.28814C8.97404 6.08013 8.67807 5.97279 8.37523 5.97279Z" fill="#333333"/>
<path d="M13.6061 19.4999C13.262 19.4999 12.9247 19.3925 12.6494 19.1845C12.3259 18.9497 12.1126 18.5873 12.0644 18.1981L11.8029 16.0039C11.7616 15.7959 11.5482 15.6349 11.3073 15.6349H9.82749C8.5817 15.6282 7.52177 14.8029 7.28087 13.6152L6.90231 11.515C6.84036 11.1191 6.93673 10.7299 7.17075 10.4079C7.41164 10.0858 7.75578 9.87776 8.16187 9.81737C9.00157 9.66975 9.78619 10.1931 9.95826 11.005L10.2611 12.6893H11.2935C13.0555 12.6624 14.556 13.8635 14.8588 15.5611C14.8657 15.6081 15.141 17.8626 15.141 17.8626C15.1892 18.2585 15.0653 18.6544 14.8037 18.9563C14.5422 19.2583 14.1705 19.4529 13.7713 19.4932C13.7163 19.4999 13.6612 19.4999 13.6061 19.4999ZM11.3348 14.6284C12.0713 14.6284 12.6976 15.1384 12.8284 15.8563L13.0968 18.0774C13.1106 18.1981 13.1794 18.3055 13.2758 18.386C13.3859 18.4665 13.5235 18.5068 13.6681 18.4934C13.8057 18.48 13.9296 18.4128 14.0191 18.3122C14.0948 18.225 14.1361 18.0975 14.1223 17.9834C14.1223 17.9834 13.8608 15.796 13.847 15.7222C13.6337 14.5412 12.5875 13.6689 11.3073 13.7092H9.83438C9.5866 13.7092 9.36635 13.5347 9.32506 13.2932L8.95338 11.1997C8.89832 10.9447 8.63678 10.7702 8.36147 10.8171C8.21005 10.8373 8.09991 10.9044 8.0242 11.0118C7.94849 11.1124 7.92097 11.2399 7.94161 11.3607L8.31329 13.4475C8.45094 14.1386 9.07726 14.6419 9.80684 14.6419C9.81372 14.6419 9.82749 14.6419 9.83438 14.6419H11.3073C11.3142 14.6285 11.321 14.6284 11.3348 14.6284Z" fill="#333333"/>
<path d="M9.91049 19.4999H4.82411C4.54192 19.4999 4.3079 19.2718 4.3079 18.9967C4.3079 18.7216 4.54192 18.4934 4.82411 18.4934H9.9036C9.93801 18.4934 9.96554 18.48 9.98619 18.4598L9.91049 17.6278C9.9036 17.601 9.86918 17.5674 9.83476 17.5742C9.80723 17.5742 9.77971 17.5742 9.75217 17.5742C7.54969 17.5742 5.65693 16.0577 5.24397 13.9373L5.01683 12.649C4.98241 12.4745 4.85163 12.3337 4.6658 12.28C4.39049 12.2062 4.23219 11.9243 4.3079 11.6559C4.38361 11.3875 4.67268 11.2332 4.94799 11.307C5.51238 11.4613 5.92536 11.9043 6.03548 12.4679L6.26261 13.7561C6.5861 15.4135 8.07967 16.6146 9.82101 16.5677C10.3785 16.561 10.8672 16.9636 10.9429 17.5071L11.0392 18.3055C11.0737 18.6209 10.9704 18.9296 10.7502 19.1577C10.5299 19.3724 10.2271 19.4999 9.91049 19.4999Z" fill="#333333"/>
<path d="M18.5962 10.8038H14.8107C14.1499 10.8038 13.6062 10.2737 13.6062 9.62958V5.17424C13.6062 4.53009 14.1499 4 14.8107 4H18.5962C19.257 4 19.8007 4.53009 19.8007 5.17424V9.62958C19.8007 10.2804 19.257 10.8038 18.5962 10.8038ZM14.8107 5.00649C14.7143 5.00649 14.6386 5.0803 14.6386 5.17424V9.62958C14.6386 9.72352 14.7143 9.79733 14.8107 9.79733H18.5962C18.6926 9.79733 18.7683 9.72352 18.7683 9.62958V5.17424C18.7683 5.0803 18.6926 5.00649 18.5962 5.00649H14.8107Z" fill="#333333"/>
</svg>
