<svg width="24" height="24" viewBox="0 0 24 24" fill="none" xmlns="http://www.w3.org/2000/svg">
<path fill-rule="evenodd" clip-rule="evenodd" d="M7 12.3334C7 11.7811 7.44772 11.3334 8 11.3334H16C16.5523 11.3334 17 11.7811 17 12.3334V17C17 17.5523 16.5523 18 16 18H8C7.44772 18 7 17.5523 7 17V12.3334Z" stroke="#333333" stroke-linecap="round" stroke-linejoin="round"/>
<path d="M10 14.001V16.001" stroke="#333333" stroke-linecap="round" stroke-linejoin="round"/>
<path d="M14 14.001V16.001" stroke="#333333" stroke-linecap="round" stroke-linejoin="round"/>
<path d="M13.6666 11.3333V5.66667C13.6666 5.29848 13.3682 5 13 5H11C10.6318 5 10.3333 5.29848 10.3333 5.66667V11.3333" stroke="#333333" stroke-linecap="round" stroke-linejoin="round"/>
<path d="M9 18.001V19.001" stroke="#333333" stroke-linecap="round" stroke-linejoin="round"/>
<path d="M15 18.001V19.001" stroke="#333333" stroke-linecap="round" stroke-linejoin="round"/>
</svg>
