<svg width="24" height="24" viewBox="0 0 24 24" fill="none" xmlns="http://www.w3.org/2000/svg">
<path d="M12.02 2.5L13.02 4.7C13.12 4.9 13.32 5 13.52 5H15.52L13.82 6.7C13.62 6.9 13.5747 7.2 13.62 7.3L14.12 8.4L14.62 9.5L12.52 8.3C12.32 8.2 12.22 8.1 12.02 8.1V9.2L14.12 10.4C14.52 10.6 15.02 10.5 15.32 10.2C15.52 10 15.72 9.5 15.52 9.1L14.72 7.2L16.22 5.7C16.52 5.4 16.6988 4.9575 16.52 4.6C16.32 4.2 15.92 4 15.52 4H13.82L12.92 2.1C12.72 1.7 12.42 1.5 12.02 1.5V2.5Z" fill="#333333"/>
<path d="M12.02 2.49955L11.0203 4.69856C10.9203 4.89847 10.7204 4.99843 10.5204 4.99843H8.521L10.2205 6.69766C10.4205 6.89757 10.4658 7.19743 10.4205 7.29739L9.9206 8.3969L9.42074 9.4964L11.5202 8.29694C11.7201 8.19699 11.8201 8.09703 12.02 8.09703V9.19654L9.9206 10.396C9.52072 10.5959 9.02086 10.496 8.72094 10.1961C8.521 9.99618 8.32105 9.4964 8.521 9.09658L9.32077 7.19743L7.82119 5.69811C7.52127 5.39824 7.34257 4.95594 7.52127 4.59861C7.72122 4.19879 8.12111 3.99888 8.521 3.99888H10.2205L11.1203 2.09973C11.3202 1.69991 11.6201 1.5 12.02 1.5V2.49955Z" fill="#333333"/>
<path d="M17.97 11.5L18.97 13.7C19.07 13.9 19.27 14 19.47 14H21.47L19.77 15.7C19.57 15.9 19.5247 16.2 19.57 16.3L20.07 17.4L20.57 18.5L18.47 17.3C18.27 17.2 18.17 17.1 17.97 17.1V18.2L20.07 19.4C20.47 19.6 20.97 19.5 21.27 19.2C21.47 19 21.67 18.5 21.47 18.1L20.67 16.2L22.17 14.7C22.47 14.4 22.6488 13.9575 22.47 13.6C22.27 13.2 21.87 13 21.47 13H19.77L18.87 11.1C18.67 10.7 18.37 10.5 17.97 10.5V11.5Z" fill="#333333"/>
<path d="M17.97 11.4996L16.9703 13.6986C16.8703 13.8985 16.6704 13.9984 16.4704 13.9984H14.471L16.1705 15.6977C16.3705 15.8976 16.4158 16.1974 16.3705 16.2974L15.8706 17.3969L15.3708 18.4964L17.4702 17.2969C17.6701 17.197 17.7701 17.097 17.97 17.097V18.1965L15.8706 19.396C15.4707 19.5959 14.9709 19.496 14.671 19.1961C14.471 18.9962 14.2711 18.4964 14.471 18.0966L15.2708 16.1974L13.7712 14.6981C13.4713 14.3982 13.2926 13.9559 13.4713 13.5986C13.6712 13.1988 14.0711 12.9989 14.471 12.9989H16.1705L17.0703 11.0997C17.2702 10.6999 17.5701 10.5 17.97 10.5V11.4996Z" fill="#333333"/>
<path d="M5.97 11.5L6.97 13.7C7.07 13.9 7.27 14 7.47 14H9.47L7.77 15.7C7.57 15.9 7.52469 16.2 7.57 16.3L8.07 17.4L8.57 18.5L6.47 17.3C6.27 17.2 6.17 17.1 5.97 17.1V18.2L8.07 19.4C8.47 19.6 8.97 19.5 9.27 19.2C9.47 19 9.67 18.5 9.47 18.1L8.67 16.2L10.17 14.7C10.47 14.4 10.6488 13.9575 10.47 13.6C10.27 13.2 9.87 13 9.47 13H7.77L6.87 11.1C6.67 10.7 6.37 10.5 5.97 10.5V11.5Z" fill="#333333"/>
<path d="M5.97 11.4996L4.97028 13.6986C4.87031 13.8985 4.67036 13.9984 4.47042 13.9984H2.47098L4.1705 15.6977C4.37045 15.8976 4.41575 16.1974 4.37045 16.2974L3.87059 17.3969L3.37073 18.4964L5.47014 17.2969C5.67008 17.197 5.77006 17.097 5.97 17.097V18.1965L3.87059 19.396C3.4707 19.5959 2.97084 19.496 2.67092 19.1961C2.47098 18.9962 2.27103 18.4964 2.47098 18.0966L3.27075 16.1974L1.77117 14.6981C1.47126 14.3982 1.29256 13.9559 1.47126 13.5986C1.6712 13.1988 2.07109 12.9989 2.47098 12.9989H4.1705L5.07025 11.0997C5.2702 10.6999 5.57011 10.5 5.97 10.5V11.4996Z" fill="#333333"/>
</svg>
