<svg width="24" height="24" viewBox="0 0 24 24" fill="none" xmlns="http://www.w3.org/2000/svg">
<path d="M15.9889 13.0206C13.2277 13.0206 10.9786 10.7715 10.9786 8.01031C10.9786 5.24907 13.2277 3 15.9889 3C18.7502 3 20.9993 5.24907 20.9993 8.01031C20.9993 10.7715 18.7502 13.0206 15.9889 13.0206ZM15.9889 4.1134C13.8364 4.1134 12.092 5.85773 12.092 8.01031C12.092 10.1629 13.8364 11.9072 15.9889 11.9072C18.1341 11.9072 19.8859 10.1629 19.8859 8.01031C19.8859 5.85773 18.1415 4.1134 15.9889 4.1134Z" fill="#333333"/>
<path d="M8.40296 18.7732H6.89616C6.59183 18.7732 6.33945 18.5208 6.33945 18.2165C6.33945 17.9122 6.59183 17.6598 6.89616 17.6598H8.40296C8.5811 17.6598 8.74439 17.5485 8.8112 17.3852C8.90027 17.1625 8.78894 16.9027 8.56626 16.8136L7.03719 16.2049C6.44337 15.9674 6.06482 15.4033 6.06482 14.7649C6.06482 14.3493 6.22811 13.9633 6.51759 13.6664C6.80708 13.3695 7.20049 13.2136 7.61616 13.2136H9.12296C9.42729 13.2136 9.67966 13.466 9.67966 13.7703C9.67966 14.0747 9.42729 14.327 9.12296 14.327H7.61616C7.49739 14.327 7.38604 14.3715 7.30439 14.4532C7.22274 14.5348 7.17822 14.6462 7.17822 14.7649C7.17822 14.9431 7.28956 15.1064 7.45286 15.1732L8.98193 15.7818C9.77615 16.101 10.1621 17.0066 9.84296 17.8008C9.60544 18.3872 9.04131 18.7732 8.40296 18.7732Z" fill="#333333"/>
<path d="M8.00958 14.3195C7.70525 14.3195 7.45288 14.0671 7.45288 13.7628V13.2061C7.45288 12.9018 7.70525 12.6494 8.00958 12.6494C8.31391 12.6494 8.56628 12.9018 8.56628 13.2061V13.7628C8.56628 14.0671 8.32133 14.3195 8.00958 14.3195Z" fill="#333333"/>
<path d="M8.00958 19.33C7.70525 19.33 7.45288 19.0776 7.45288 18.7733V18.2166C7.45288 17.9123 7.70525 17.6599 8.00958 17.6599C8.31391 17.6599 8.56628 17.9123 8.56628 18.2166V18.7733C8.56628 19.0776 8.32133 19.33 8.00958 19.33Z" fill="#333333"/>
<path d="M8.00958 21.0001C5.24834 21.0001 2.99927 18.751 2.99927 15.9898C2.99927 13.2286 5.24834 10.9795 8.00958 10.9795C10.7708 10.9795 13.0199 13.2286 13.0199 15.9898C13.0199 18.751 10.7708 21.0001 8.00958 21.0001ZM8.00958 12.0929C5.857 12.0929 4.11267 13.8372 4.11267 15.9898C4.11267 18.135 5.857 19.8867 8.00958 19.8867C10.1622 19.8867 11.9065 18.135 11.9065 15.9898C11.9065 13.8372 10.1622 12.0929 8.00958 12.0929Z" fill="#333333"/>
<path d="M5.22602 9.8661C5.04046 9.8661 4.85488 9.76961 4.75096 9.59889L3.08086 6.81539C2.92498 6.55559 3.00664 6.2067 3.27385 6.05083C3.53365 5.89495 3.88251 5.97661 4.03839 6.24383L5.41902 8.55227L7.72746 7.17166C7.98726 7.01578 8.33612 7.09744 8.492 7.36466C8.64787 7.62445 8.56622 7.97329 8.299 8.12917L5.5155 9.79927C5.42642 9.84381 5.32252 9.8661 5.22602 9.8661Z" fill="#333333"/>
<path d="M5.79762 9.52465C5.50814 9.52465 5.27061 9.30197 5.24092 9.01248C5.04051 6.52589 6.5399 4.18777 8.88546 3.33416C9.17495 3.23024 9.49412 3.37871 9.59803 3.66819C9.70195 3.95768 9.55351 4.27682 9.26403 4.38074C7.38609 5.06363 6.19104 6.93414 6.34692 8.92342C6.36919 9.22775 6.1465 9.49496 5.83475 9.52465C5.82733 9.52465 5.81247 9.52465 5.79762 9.52465Z" fill="#333333"/>
<path d="M20.257 18.2165C20.0714 18.2165 19.8858 18.1201 19.7819 17.9493L18.4013 15.6409L16.0928 17.0215C15.8256 17.1774 15.4842 17.0957 15.3283 16.8285C15.1724 16.5613 15.2541 16.2198 15.5213 16.0639L18.3048 14.3938C18.572 14.238 18.9135 14.3196 19.0693 14.5868L20.7394 17.3703C20.8953 17.6376 20.8137 17.979 20.5464 18.1349C20.4574 18.1943 20.3535 18.2165 20.257 18.2165Z" fill="#333333"/>
<path d="M14.7345 20.8886C14.5044 20.8886 14.2966 20.7476 14.2075 20.5249C14.1036 20.2354 14.252 19.9163 14.5415 19.8124C16.4195 19.1295 17.6145 17.259 17.4587 15.2697C17.4364 14.9653 17.6665 14.6907 17.9708 14.6684C18.2752 14.661 18.5424 14.8762 18.5721 15.1806C18.7725 17.6672 17.2731 20.0053 14.9275 20.8589C14.8607 20.8812 14.8013 20.8886 14.7345 20.8886Z" fill="#333333"/>
<path d="M15.989 10.4301C15.6846 10.4301 15.4323 10.1777 15.4323 9.87341V5.78351C15.4323 5.47918 15.6846 5.22681 15.989 5.22681C16.2933 5.22681 16.5457 5.47918 16.5457 5.78351V9.87341C16.5457 10.1777 16.3007 10.4301 15.989 10.4301Z" fill="#333333"/>
<path d="M18.0376 8.56702H13.9477C13.6434 8.56702 13.391 8.31464 13.391 8.01031C13.391 7.70598 13.6434 7.45361 13.9477 7.45361H18.0376C18.3419 7.45361 18.5943 7.70598 18.5943 8.01031C18.5943 8.31464 18.3419 8.56702 18.0376 8.56702Z" fill="#333333"/>
</svg>
