<svg width="24" height="24" viewBox="0 0 24 24" fill="none" xmlns="http://www.w3.org/2000/svg">
<path fill-rule="evenodd" clip-rule="evenodd" d="M15.8507 11.8214C15.7335 11.2278 15.2128 10.7999 14.6077 10.8H8.89227C8.28713 10.7999 7.7664 11.2278 7.6492 11.8214L7.02387 14.9882C6.95049 15.36 7.04738 15.745 7.28797 16.0378C7.52857 16.3305 7.88758 16.5002 8.26651 16.5002H15.2334C15.6123 16.5002 15.9714 16.3305 16.2119 16.0378C16.4525 15.745 16.5494 15.36 16.476 14.9882L15.8507 11.8214Z" stroke="#333333" stroke-linecap="round" stroke-linejoin="round"/>
<path d="M10.1666 10.8001V8.58339C10.1666 7.70891 10.8755 7 11.75 7C12.6244 7 13.3333 7.70891 13.3333 8.58339V10.8001" stroke="#333333" stroke-linecap="round" stroke-linejoin="round"/>
<path d="M10.8 12.7002H12.7001" stroke="#333333" stroke-linecap="round" stroke-linejoin="round"/>
</svg>
