<svg width="24" height="24" viewBox="0 0 24 24" fill="none" xmlns="http://www.w3.org/2000/svg">
<g clip-path="url(#clip0)">
<path d="M16.3791 18.8758H10.7542C10.4125 18.8758 10.1292 18.5925 10.1292 18.2508C10.1292 17.9091 10.4125 17.6258 10.7542 17.6258H16.3791C17.4125 17.6258 18.2541 16.7841 18.2541 15.7508V8.25079C18.2541 7.21746 17.4125 6.37579 16.3791 6.37579H15.7541C15.4125 6.37579 15.1291 6.09246 15.1291 5.75079C15.1291 5.40913 15.4125 5.12579 15.7541 5.12579H16.3791C18.1041 5.12579 19.5041 6.52579 19.5041 8.25079V15.7508C19.5041 17.4758 18.0958 18.8758 16.3791 18.8758Z" fill="#333333"/>
<path d="M8.25415 18.8758H7.62915C5.90415 18.8758 4.50415 17.4758 4.50415 15.7508V8.25079C4.50415 6.52579 5.90415 5.12579 7.62915 5.12579H13.2542C13.5958 5.12579 13.8792 5.40913 13.8792 5.75079C13.8792 6.09246 13.5958 6.37579 13.2542 6.37579H7.62915C6.59582 6.37579 5.75415 7.21746 5.75415 8.25079V15.7508C5.75415 16.7841 6.59582 17.6258 7.62915 17.6258H8.25415C8.59582 17.6258 8.87915 17.9091 8.87915 18.2508C8.87915 18.5925 8.59582 18.8758 8.25415 18.8758Z" fill="#333333"/>
<path d="M13.8791 22.001C13.7208 22.001 13.5625 21.9429 13.4375 21.8179L10.3125 18.6929C10.0708 18.4512 10.0708 18.0512 10.3125 17.8095L13.4375 14.6845C13.6791 14.4428 14.0791 14.4428 14.3208 14.6845C14.5625 14.9262 14.5625 15.3262 14.3208 15.5679L11.6375 18.251L14.3208 20.9345C14.5625 21.1762 14.5625 21.5762 14.3208 21.8179C14.1958 21.9429 14.0375 22.001 13.8791 22.001Z" fill="#333333"/>
<path d="M10.1291 9.50097C9.97081 9.50097 9.81248 9.44287 9.68748 9.31787C9.44581 9.0762 9.44581 8.67615 9.68748 8.43448L12.3708 5.75097L9.68748 3.06787C9.44581 2.8262 9.44581 2.42615 9.68748 2.18448C9.92914 1.94282 10.3291 1.94282 10.5708 2.18448L13.6958 5.30948C13.9375 5.55115 13.9375 5.9512 13.6958 6.19287L10.5708 9.31787C10.4458 9.44287 10.2875 9.50097 10.1291 9.50097Z" fill="#333333"/>
</g>
<defs>
<clipPath id="clip0">
<rect x="4.5" y="2" width="15" height="20" fill="white"/>
</clipPath>
</defs>
</svg>
